<svg width="24" height="24" viewBox="0 0 24 24" fill="none" xmlns="http://www.w3.org/2000/svg">
<path fill-rule="evenodd" clip-rule="evenodd" d="M13.6153 4.91789C13.5057 5.10318 13.4095 5.29638 13.3277 5.49594C13.9073 5.6551 14.4532 5.91594 14.9544 6.25635C15.984 5.57552 17.1748 5.22847 18.4158 5.44952C20.2386 5.77557 21.5373 7.20797 22.2585 8.95317C22.9842 10.7116 23.1999 12.9321 22.8033 15.2133C22.4067 17.4946 21.4556 19.5061 20.1808 20.9054C18.9148 22.2958 17.2108 23.191 15.3891 22.865C14.9864 22.7923 14.5958 22.6624 14.2287 22.4792C13.5339 22.8211 12.7718 22.999 11.9996 22.9998C11.2086 22.9998 10.4579 22.8119 9.77149 22.4803C9.40407 22.6632 9.01309 22.7927 8.61006 22.865C6.78838 23.191 5.08436 22.2958 3.81833 20.9065C2.54359 19.5061 1.59135 17.4946 1.19585 15.2144C0.799262 12.9321 1.01499 10.7116 1.74061 8.95427C2.46188 7.20797 3.76059 5.77557 5.58336 5.45062C6.82433 5.22847 8.01518 5.57552 9.04478 6.25746C9.65251 5.83898 10.3374 5.5495 11.0582 5.40641C11.2086 4.84274 11.4592 4.26579 11.7468 3.78059C11.9887 3.36943 12.297 2.95718 12.6653 2.63223C13.0226 2.31834 13.5402 2.00003 14.1786 2.00003C14.4676 1.99431 14.7469 2.10528 14.9553 2.30851C15.1636 2.51174 15.2838 2.7906 15.2894 3.08373C15.295 3.37686 15.1856 3.66025 14.9853 3.87157C14.785 4.08289 14.5101 4.20482 14.2211 4.21053C13.9542 4.34316 13.7602 4.67142 13.6153 4.91789ZM8.18624 13.7135C7.936 13.86 7.63861 13.8998 7.35951 13.8239C7.0804 13.748 6.84243 13.5628 6.69795 13.309L5.60842 11.3947C5.50063 11.2053 5.45061 10.9878 5.4647 10.7697C5.47878 10.5515 5.55633 10.3425 5.68754 10.169C5.81875 9.99557 5.99773 9.86549 6.20182 9.79524C6.40592 9.725 6.62597 9.71773 6.83414 9.77437L9.81072 10.5834C10.0189 10.64 10.2058 10.7579 10.3479 10.9223C10.4899 11.0867 10.5808 11.2901 10.6089 11.5068C10.637 11.7236 10.6011 11.9439 10.5058 12.1399C10.4104 12.336 10.2599 12.499 10.0733 12.6082L8.18624 13.7135ZM17.3012 13.309C17.1567 13.5628 16.9187 13.748 16.6396 13.8239C16.3605 13.8998 16.0631 13.86 15.8129 13.7135L13.9259 12.6082C13.7392 12.499 13.5887 12.336 13.4934 12.1399C13.398 11.9439 13.3622 11.7236 13.3903 11.5068C13.4184 11.2901 13.5092 11.0867 13.6513 10.9223C13.7934 10.7579 13.9803 10.64 14.1884 10.5834L17.165 9.77437C17.3732 9.71773 17.5932 9.725 17.7973 9.79524C18.0014 9.86549 18.1804 9.99557 18.3116 10.169C18.4428 10.3425 18.5204 10.5515 18.5344 10.7697C18.5485 10.9878 18.4985 11.2053 18.3907 11.3947L17.3012 13.309ZM9.32915 17.3763C9.43721 17.4584 9.57084 17.4983 9.70553 17.4885C9.84022 17.4788 9.96692 17.4201 10.0624 17.3232C10.5762 16.8022 11.273 16.5095 11.9996 16.5095C12.7261 16.5095 13.4229 16.8022 13.9367 17.3232C14.0322 17.4201 14.1589 17.4788 14.2936 17.4885C14.4283 17.4983 14.5619 17.4584 14.67 17.3763L15.705 16.5894C15.9362 16.4135 16.2268 16.338 16.5128 16.3794C16.7989 16.4209 17.057 16.5759 17.2304 16.8104C17.4038 17.0449 17.4782 17.3397 17.4373 17.6299C17.3965 17.92 17.2436 18.1819 17.0125 18.3578L15.9774 19.1447C15.4497 19.546 14.7971 19.7408 14.1392 19.6933C13.4814 19.6458 12.8625 19.3592 12.3962 18.8861C12.2909 18.7794 12.1483 18.7195 11.9996 18.7195C11.8508 18.7195 11.7082 18.7794 11.603 18.8861C11.1367 19.3592 10.5178 19.6458 9.85992 19.6933C9.20208 19.7408 8.54941 19.546 8.02172 19.1447L6.98776 18.3578C6.8733 18.2707 6.77686 18.1616 6.70397 18.0367C6.63107 17.9118 6.58313 17.7735 6.5629 17.6299C6.54267 17.4862 6.55053 17.3399 6.58604 17.1993C6.62155 17.0587 6.68401 16.9265 6.76986 16.8104C6.8557 16.6943 6.96325 16.5965 7.08637 16.5225C7.20948 16.4486 7.34575 16.3999 7.48739 16.3794C7.62903 16.3589 7.77327 16.3669 7.91187 16.4029C8.05048 16.4389 8.18073 16.5023 8.29519 16.5894L9.32915 17.3763Z" fill="#FCC211"/>
</svg>
