<svg width="32" height="32" viewBox="0 0 32 32" fill="none" xmlns="http://www.w3.org/2000/svg">
<path fill-rule="evenodd" clip-rule="evenodd" d="M29.3333 14.6667C29.3372 17.5523 28.4011 20.3606 26.6666 22.6667V25.3334C26.6666 26.3943 26.2452 27.4117 25.4951 28.1618C24.7449 28.912 23.7275 29.3334 22.6666 29.3334V28.0001C22.6666 27.6465 22.5262 27.3073 22.2761 27.0573C22.0261 26.8072 21.6869 26.6667 21.3333 26.6667C20.9797 26.6667 20.6405 26.8072 20.3905 27.0573C20.1404 27.3073 20 27.6465 20 28.0001V29.3334H17.3333V28.0001C17.3333 27.6465 17.1928 27.3073 16.9428 27.0573C16.6927 26.8072 16.3536 26.6667 16 26.6667C15.6463 26.6667 15.3072 26.8072 15.0572 27.0573C14.8071 27.3073 14.6666 27.6465 14.6666 28.0001V29.3334H12V28.0001C12 27.6465 11.8595 27.3073 11.6094 27.0573C11.3594 26.8072 11.0203 26.6667 10.6666 26.6667C10.313 26.6667 9.97388 26.8072 9.72383 27.0573C9.47378 27.3073 9.3333 27.6465 9.3333 28.0001V29.3334C8.27244 29.3334 7.25502 28.912 6.50488 28.1618C5.75473 27.4117 5.3333 26.3943 5.3333 25.3334V22.6667C3.59888 20.3606 2.66277 17.5523 2.66664 14.6667C2.66664 10.9614 4.1813 7.92275 6.6533 5.83075C9.10397 3.75608 12.424 2.66675 16 2.66675C19.576 2.66675 22.896 3.75608 25.3466 5.83075C27.8173 7.92275 29.3333 10.9601 29.3333 14.6667ZM10.6666 12.0001C9.95939 12.0001 9.28112 12.281 8.78102 12.7811C8.28092 13.2812 7.99997 13.9595 7.99997 14.6667C7.99997 15.374 8.28092 16.0523 8.78102 16.5524C9.28112 17.0525 9.95939 17.3334 10.6666 17.3334C11.3739 17.3334 12.0522 17.0525 12.5523 16.5524C13.0524 16.0523 13.3333 15.374 13.3333 14.6667C13.3333 13.9595 13.0524 13.2812 12.5523 12.7811C12.0522 12.281 11.3739 12.0001 10.6666 12.0001ZM17.192 19.2201C16.9666 18.8801 16.5066 18.6667 16 18.6667C15.4933 18.6667 15.0333 18.8801 14.808 19.2201L13.4746 21.2201C13.3734 21.3651 13.3239 21.5401 13.3343 21.7167C13.3447 21.8933 13.4144 22.0613 13.532 22.1934C13.776 22.4867 14.204 22.6667 14.6666 22.6667H17.3333C17.796 22.6667 18.224 22.4867 18.4666 22.1921C18.5844 22.0601 18.6543 21.8922 18.665 21.7156C18.6756 21.539 18.6264 21.3639 18.5253 21.2187L17.192 19.2187V19.2201ZM18.6666 14.6667C18.6666 13.9595 18.9476 13.2812 19.4477 12.7811C19.9478 12.281 20.6261 12.0001 21.3333 12.0001C22.0405 12.0001 22.7188 12.281 23.2189 12.7811C23.719 13.2812 24 13.9595 24 14.6667C24 15.374 23.719 16.0523 23.2189 16.5524C22.7188 17.0525 22.0405 17.3334 21.3333 17.3334C20.6261 17.3334 19.9478 17.0525 19.4477 16.5524C18.9476 16.0523 18.6666 15.374 18.6666 14.6667Z" fill="#FCC211"/>
</svg>
