<svg width="104" height="40" viewBox="0 0 104 40" fill="none" xmlns="http://www.w3.org/2000/svg">
<g clip-path="url(#clip0_2825_4508)">
<path d="M93.5476 22.5242L96.5411 21.3996L97.8001 18.2881L99.7968 25.7209L93.5476 22.5242Z" fill="white"/>
<path d="M93.2426 18.5901C88.4262 19.0229 90.6393 24.8589 88.1639 22.9999C85.6885 21.1409 88.7278 17.4262 87.0786 14.7442C86.0393 13.0589 81.436 13.7934 77.6622 15.2196C76.2295 15.0032 80.3967 16.2032 80.4393 16.2557C80.5057 16.3671 80.5638 16.4832 80.6131 16.6032C80.7097 16.6944 80.7966 16.7955 80.8721 16.9048C81.2196 17.3376 74.1901 18.9376 74.4065 19.4557C83 19.4983 86.3409 14.6589 85.1704 20.4917C84.0852 25.8098 87.7737 26.8458 90.2032 25.5048C92.6327 24.1639 89.7704 20.3212 92.9377 19.6294C96.3245 18.895 96.4557 21.6163 96.4557 21.6163L96.7836 21.3573C96.8459 21.3934 96.4557 18.8885 93.2426 18.5901Z" fill="white"/>
<path d="M62.9476 18.4982C62.2558 18.6261 61.6033 18.7146 61.0394 18.7998C60.4755 18.8851 59.9115 18.931 59.4001 19.0162L57.8361 19.1474C57.3181 19.19 56.7083 19.2752 56.1017 19.3638C55.6943 19.3853 55.2883 19.428 54.8853 19.4916C54.4951 19.5343 53.9017 19.5769 53.105 19.708L54.1902 14.5211C54.3214 13.9605 54.4099 13.4424 54.4951 12.9211C54.5804 12.3998 54.7115 11.8424 54.8001 11.3244C54.9252 10.9277 55.0259 10.5236 55.1017 10.1146C55.2328 9.63917 55.3214 9.20638 55.4066 8.90474L54.1902 9.11786C54.3214 8.08179 54.4951 7.21622 54.6263 6.52769C54.7115 6.13753 54.8001 5.83589 54.8427 5.54409C54.8971 5.29441 54.9694 5.04897 55.0591 4.80966C55.1476 4.59327 55.1902 4.42278 55.2755 4.249C55.5378 4.20638 55.8394 4.11786 56.2755 4.03261C56.703 3.90326 57.1423 3.8165 57.5869 3.77359C58.0656 3.68507 58.4099 3.64245 58.8033 3.5572C59.1968 3.47196 59.541 3.42605 59.7148 3.38343C60.1476 3.29819 60.5804 3.20966 61.1017 3.12441C61.6153 2.99673 62.1383 2.91012 62.6656 2.8654C62.8198 2.82027 62.9813 2.80579 63.141 2.82278C63.446 2.78015 63.705 2.73425 63.9673 2.69163C64.2296 2.649 64.5312 2.60638 64.7476 2.56376C64.8961 2.53912 65.0463 2.52596 65.1968 2.52441V3.25884C65.2239 3.60477 65.2085 3.95273 65.1509 4.29491C65.1083 4.68507 65.1083 5.11458 65.023 5.60638C64.9598 6.10427 64.8578 6.59647 64.7181 7.07851C64.4122 7.10438 64.1079 7.14707 63.8066 7.20638C63.3312 7.249 62.8525 7.33753 62.2886 7.42278C61.7247 7.50802 61.246 7.59655 60.8132 7.68179C60.5494 7.70804 60.2876 7.75185 60.0296 7.81294L59.623 9.73753C60.0132 9.69491 60.3607 9.60638 60.6656 9.56376C60.9706 9.52114 61.3214 9.47851 61.5771 9.43589C61.8329 9.39327 62.141 9.34736 62.446 9.30474C62.7509 9.26212 63.0525 9.17687 63.4001 9.13097C63.4239 9.59256 63.4097 10.0553 63.3574 10.5146C63.307 11.2388 63.2195 11.96 63.0951 12.6752C62.9214 12.7211 62.705 12.7211 62.4394 12.8064C62.1738 12.8916 61.9607 12.9342 61.6984 12.9802C61.4361 13.0261 61.223 13.0654 60.9607 13.108C60.6984 13.1506 60.5706 13.1965 60.3968 13.2392C60.223 13.2818 59.9214 13.3244 59.5738 13.4097C59.2449 13.4511 58.9236 13.5395 58.6197 13.672C58.6048 13.8953 58.5607 14.1158 58.4886 14.3277C58.4305 14.512 58.3866 14.7006 58.3574 14.8916C58.7076 14.8727 59.0561 14.8289 59.4001 14.7605C59.7902 14.6752 60.1378 14.6326 60.4853 14.5441L63.1771 13.9834C63.22 14.1992 63.2343 14.4197 63.2197 14.6392C63.2567 14.9657 63.271 15.2943 63.2624 15.6228C63.2624 16.0097 63.2624 16.4424 63.2197 16.9342C63.0788 17.4621 63.0361 17.9802 62.9476 18.4982Z" fill="white"/>
<path d="M73.5377 13.7869C73.5852 14.3772 73.5852 14.9704 73.5377 15.5607C73.4951 16.3803 73.4098 17.2 73.3213 18.0656C72.7574 18.1967 72.1508 18.282 71.3541 18.4557C70.5574 18.6295 69.8361 18.7574 68.9672 18.9312C68.0984 19.1049 67.2754 19.1902 66.4066 19.318C65.6024 19.4381 64.7901 19.4962 63.9771 19.4918C63.9771 19.4492 64.0197 19.1902 64.1082 18.7574C64.1967 18.3246 64.282 17.7738 64.4098 17.118C64.5377 16.4623 64.7148 15.7344 64.8459 14.9148C64.977 14.0951 65.1475 13.3574 65.3213 12.5377C65.4951 11.718 65.6689 11.023 65.8 10.3344C65.9311 9.64591 66.1049 9.12132 66.1902 8.69509C66.2328 8.4787 66.3213 8.13115 66.4525 7.61312C66.5836 7.09509 66.7115 6.53443 66.8426 5.97378C66.9738 5.41312 67.1443 4.84919 67.2754 4.33443C67.4066 3.81968 67.5377 3.42624 67.5803 3.25575C67.8542 3.23246 68.1295 3.23246 68.4033 3.25575C68.7655 3.24948 69.1279 3.26371 69.4885 3.29837C69.8959 3.31988 70.3019 3.36256 70.7049 3.42624C71.1377 3.47214 71.5279 3.55738 71.8328 3.60001C71.7902 3.73116 71.7016 3.99017 71.5738 4.42296C71.4459 4.85575 71.3541 5.28525 71.1803 5.80329C71.0066 6.32132 70.9213 6.75411 70.7902 7.18689C70.659 7.61968 70.5738 7.92132 70.5312 8.05247C70.2689 9.13116 70.0525 10.2131 69.7508 11.3312C69.4492 12.4492 69.2721 13.5344 69.0951 14.6098C69.4426 14.5639 69.8328 14.5213 70.1803 14.4787C70.5606 14.4312 70.9373 14.3589 71.3082 14.2623C71.3508 14.2197 71.482 14.2197 71.6984 14.1771C71.9473 14.1523 72.1939 14.1085 72.4361 14.0459C72.741 14.0033 72.9148 13.9607 73.1738 13.918C73.2868 13.854 73.4098 13.8097 73.5377 13.7869Z" fill="white"/>
<path d="M83.9967 13.7869C84.0442 14.3772 84.0442 14.9704 83.9967 15.5607C83.954 16.3803 83.7803 16.5115 83.695 17.3738C83.1311 17.5049 82.3475 17.9377 81.5671 18.1082C80.7868 18.2787 80.2557 18.7639 79.3967 18.9312C78.5376 19.0984 77.7049 19.1902 76.836 19.318C76.0318 19.4381 75.2196 19.4962 74.4065 19.4918C74.4065 19.4492 74.4491 19.1902 74.5376 18.7574C74.6262 18.3246 74.7114 17.7738 74.8393 17.118C74.9672 16.4623 75.1442 15.7344 75.2753 14.9148C75.4065 14.0951 75.577 13.3574 75.7508 12.5377C75.9245 11.718 76.0983 11.023 76.2294 10.3344C76.3606 9.64591 76.5344 9.12132 76.6196 8.69509C76.6622 8.4787 76.7508 8.13115 76.8819 7.61312C77.0131 7.09509 77.1409 6.53443 77.2721 5.97378C77.4032 5.41312 77.5737 4.84919 77.7049 4.33443C77.836 3.81968 77.9639 3.42624 78.0098 3.25575C78.2836 3.23246 78.5589 3.23246 78.8327 3.25575C79.195 3.24948 79.5573 3.26371 79.918 3.29837C80.3254 3.31988 80.7314 3.36256 81.1344 3.42624C81.5672 3.47214 81.9573 3.55738 82.2622 3.60001C82.2196 3.73116 82.1311 3.99017 82.0032 4.42296C81.8753 4.85575 81.7835 5.28525 81.6098 5.80329C81.436 6.32132 81.3508 6.75411 81.2196 7.18689C81.0885 7.61968 81.0032 7.92132 80.9606 8.05247C80.6983 9.13116 80.4819 10.2131 80.1803 11.3312C79.8786 12.4492 79.7016 13.5344 79.5245 14.6098C79.8721 14.5639 80.2622 14.5213 80.6098 14.4787C80.99 14.4312 81.3668 14.3589 81.7376 14.2623C81.7803 14.2197 81.9114 14.2197 82.1278 14.1771C82.3767 14.152 82.6233 14.1082 82.8655 14.0459C83.1704 14.0033 83.3442 13.9607 83.6032 13.918C83.7236 13.8469 83.8577 13.8022 83.9967 13.7869Z" fill="white"/>
<path d="M36.0818 0.691406L41.8556 1.90124L42.6359 19.793L37.0818 18.4553L36.0818 0.691406Z" fill="white"/>
<path d="M40.6394 9.89849L46.8033 9.11816V13.4428H40.9345L40.6394 9.89849Z" fill="white"/>
<path d="M47.4917 1.3836L53.7212 0L50.5966 19.7934L45.8655 19.4656L47.4917 1.3836Z" fill="white"/>
<path d="M35 39.0261C35.2164 38.5081 35.3902 37.9901 35.6557 37.472C35.9213 36.954 36.177 36.4327 36.3934 36.0458C36.638 35.5661 36.9118 35.1019 37.2131 34.6556C37.8709 34.9691 38.5529 35.2289 39.2525 35.4327C40.1175 35.6483 41.0069 35.7507 41.8984 35.7376C42.1978 35.7507 42.4959 35.6911 42.7672 35.5638C42.9144 35.5032 43.0481 35.414 43.1606 35.3015C43.2731 35.1889 43.3623 35.0553 43.4229 34.9081C43.4656 34.7802 43.423 34.6917 43.1607 34.6065C42.8984 34.5212 42.6852 34.4327 42.3377 34.3048C41.9902 34.177 41.6 34.0884 41.2066 33.9999C40.8131 33.9114 40.4689 33.7835 40.1246 33.6983C39.7311 33.5671 39.341 33.3966 38.8131 33.1802C38.3327 32.9277 37.891 32.6075 37.5016 32.2294C37.13 31.8257 36.8365 31.3566 36.6361 30.8458C36.4291 30.2034 36.3985 29.5172 36.5475 28.8589C36.6801 27.8956 37.0372 26.9769 37.5902 26.177C38.084 25.3811 38.6816 24.6545 39.3672 24.0163C39.7654 23.5992 40.2048 23.2236 40.6787 22.895C41.1732 22.5121 41.6972 22.1689 42.2459 21.8688C42.8098 21.5671 43.3311 21.3081 43.8525 21.0917C44.3019 20.8668 44.7865 20.7204 45.2852 20.6589C45.5978 20.5863 45.9189 20.5576 46.2393 20.5737C46.6032 20.5579 46.9676 20.5866 47.3246 20.6589C47.6546 20.7163 47.9667 20.8499 48.2361 21.0491C48.386 21.1288 48.5176 21.2392 48.6221 21.373C48.7266 21.5069 48.8017 21.6613 48.8426 21.8261C49.1122 22.6496 49.1575 23.5301 48.9738 24.377C48.9311 24.6786 48.8852 24.9376 48.8 25.3606C48.7148 25.7835 48.6689 26.095 48.541 26.5278C48.4131 26.9606 48.3672 27.2622 48.2787 27.6065C48.2189 27.9081 48.1162 28.1995 47.9738 28.472C47.5713 28.5232 47.1663 28.5516 46.7607 28.5573H45.5869C45.2379 28.5698 44.8885 28.5589 44.541 28.5245C44.2969 28.4823 44.0506 28.4538 43.8033 28.4393C43.8769 28.2419 43.935 28.0391 43.977 27.8327C44.0538 27.5494 44.1119 27.2613 44.1508 26.9704C44.2113 26.6561 44.254 26.3387 44.2787 26.0196C44.3246 25.7147 44.3672 25.5442 44.3246 25.4556C44.282 25.3671 44.1934 25.3278 43.8459 25.4983C43.4873 25.708 43.1521 25.9553 42.8459 26.236C42.518 26.5802 42.1541 26.9245 41.8066 27.3147C41.5444 27.6112 41.3577 27.9666 41.2623 28.3507C41.2235 28.5268 41.231 28.7098 41.2838 28.8822C41.3367 29.0545 41.4332 29.2103 41.5639 29.3343C41.8192 29.5255 42.0966 29.6851 42.3902 29.8097C42.7145 29.8893 43.0332 29.9901 43.3443 30.1114C43.6918 30.1966 44 30.2393 44.3279 30.3278C44.6661 30.3686 44.997 30.4558 45.3115 30.5868C45.7443 30.7147 46.1803 30.8458 46.6229 31.0196C47.0943 31.1838 47.4834 31.5247 47.7082 31.9704C47.8507 32.2115 47.9536 32.4738 48.0131 32.7474C48.0526 32.9901 48.0669 33.2363 48.0557 33.4819C48.0464 33.7287 48.0168 33.9743 47.9672 34.2163C47.9257 34.4764 47.8831 34.695 47.8393 34.872C47.4296 35.9971 46.7948 37.0268 45.9738 37.8983C45.0983 38.7667 44.0019 39.3789 42.8033 39.6688C42.5016 39.7573 42.1967 39.7999 41.7639 39.8852C41.3888 39.9347 41.0111 39.9632 40.6328 39.9704C39.7052 40.0198 38.7749 39.9769 37.8557 39.8425C37.2918 39.7573 36.8721 39.6688 36.423 39.5835C35.9376 39.4272 35.4624 39.2411 35 39.0261Z" fill="white"/>
<path d="M62.4722 26.9705C62.4245 27.4921 62.2927 28.0025 62.082 28.482C61.8916 28.9889 61.6118 29.4575 61.2558 29.8656C60.5515 30.6078 59.7836 31.2869 58.9607 31.8951C58.1285 32.4963 57.2415 33.0177 56.3115 33.4525C55.5738 33.8426 54.8361 34.1443 54.141 34.4361C54.1451 34.5384 54.1307 34.6406 54.0984 34.7377C54.0388 34.9071 53.9949 35.0816 53.9673 35.259C53.9148 35.5909 53.8426 35.9194 53.7509 36.2426C53.6656 36.6295 53.5771 37.2262 53.446 37.9279C53.4033 38.1443 53.3607 38.3148 53.3181 38.5312C53.2968 38.663 53.2673 38.7933 53.2296 38.9213C52.4697 39.0488 51.7036 39.1353 50.9345 39.1803C50.1968 39.223 49.623 39.2656 49.1968 39.2656C49.2853 38.7049 49.3705 38.0131 49.4591 37.2361C49.5476 36.459 49.7181 35.6361 49.8492 34.8164C49.9804 33.9967 50.1509 33.1312 50.282 32.3082C50.4132 31.4853 50.5869 30.7541 50.7148 30.1049C50.7752 29.7905 50.819 29.4731 50.846 29.1541C50.9345 28.6787 50.9771 28.2459 51.1083 27.7279C51.1585 27.4064 51.2308 27.0887 51.3246 26.7771L50.282 26.7344C50.3246 26.518 50.3705 26.2164 50.4558 25.8689C50.541 25.5213 50.5869 25.1344 50.7148 24.7443C50.8427 24.3541 50.9345 23.9246 51.0197 23.4918C51.105 23.059 51.2361 22.6721 51.3673 22.3246C51.6722 22.3246 52.105 22.282 52.7574 22.3246C53.4833 22.3239 54.2081 22.382 54.9246 22.4984C55.8479 22.5793 56.7627 22.7384 57.6591 22.9738C58.6726 23.2039 59.661 23.5334 60.6099 23.9574C60.8618 24.0454 61.096 24.1776 61.3017 24.3476C61.5346 24.4994 61.7407 24.6888 61.9115 24.9082C62.1277 25.1771 62.2892 25.4856 62.3869 25.8164C62.4876 26.1923 62.5165 26.5839 62.4722 26.9705ZM55.0066 29.9508C55.223 29.8656 55.4853 29.7771 55.7869 29.6492L56.741 29.1738C57.0446 29.0322 57.3236 28.8429 57.5673 28.6131C57.7674 28.4755 57.9189 28.2781 58.0001 28.0492C58.046 27.9213 57.9574 27.7902 57.741 27.6623C57.6078 27.5243 57.4437 27.4199 57.2624 27.3574C57.1345 27.3148 56.9607 27.2721 56.6066 27.141C56.2526 27.025 55.8896 26.9383 55.5214 26.882C55.5214 26.882 55.4787 26.9246 55.4328 27.1869C55.3902 27.4 55.3476 27.6164 55.305 27.8754C55.2624 28.1344 55.2165 28.3082 55.1738 28.5312C55.1473 28.6452 55.133 28.7617 55.1312 28.8787C55.0853 29.0492 55.1312 29.2066 55.0853 29.3967C55.0826 29.584 55.0562 29.7702 55.0066 29.9508Z" fill="white"/>
<path d="M66.1181 37.8162C65.6852 37.9026 65.2471 37.9607 64.8066 37.9899C64.3279 38.0752 63.9378 38.0752 63.4952 38.1637L62.3247 38.2916C62.0328 38.2912 61.7416 38.3209 61.4558 38.3801C61.4997 38.2698 61.5155 38.1504 61.5017 38.0325C61.5443 37.8588 61.587 37.6457 61.6296 37.4719C61.6722 37.1703 61.7607 36.6489 61.8919 35.9571C62.023 35.2653 62.1935 34.3604 62.3673 33.4096C62.5411 32.4588 62.7148 31.4194 62.9312 30.3834C63.1476 29.3473 63.3247 28.308 63.4952 27.3998C63.6656 26.4916 63.8001 25.6293 63.9738 24.9375C64.1476 24.2457 64.2329 23.7276 64.2788 23.5112C64.4952 23.4686 64.8001 23.4686 65.1443 23.3834C65.517 23.2999 65.8949 23.2418 66.2755 23.2096C66.71 23.1427 67.1478 23.0989 67.587 23.0785C68.0315 23.009 68.4815 22.9804 68.9312 22.9932C68.9312 22.9932 68.9738 23.0358 68.8886 23.2096C68.8034 23.3834 68.8886 23.426 68.8001 23.5965C68.7116 23.767 68.7574 23.8588 68.7148 23.9866C68.6904 24.0564 68.6761 24.1292 68.6722 24.203C68.5837 24.5047 68.4558 25.0227 68.3247 25.6719C68.1935 26.3211 68.0197 26.9834 67.8886 27.7047C67.7575 28.426 67.6296 29.1309 67.4558 29.7768C67.282 30.4227 67.2394 30.9014 67.1509 31.2489C66.8919 32.5866 66.7607 33.7539 66.587 34.7932C66.4132 35.8325 66.2919 36.7801 66.1181 37.8162Z" fill="white"/>
<path d="M79.9509 34.1016C79.9518 34.2752 79.9375 34.4485 79.9083 34.6196C79.8946 34.8942 79.8661 35.1678 79.823 35.4393C79.8307 35.7286 79.8154 36.018 79.7771 36.3049C79.7844 36.4954 79.7555 36.6857 79.6919 36.8655C79.2591 37.0393 78.823 37.2557 78.3804 37.4294C77.9378 37.6032 77.5542 37.7311 77.1214 37.859C76.6886 37.9868 76.3411 38.0753 75.9935 38.1639C75.646 38.2524 75.3837 38.2917 75.1247 38.3803C75.0394 38.0753 74.9509 37.7737 74.8198 37.3967C74.6886 37.0196 74.646 36.6196 74.5607 36.2327C74.4755 35.8458 74.4296 35.5409 74.3443 35.1934C74.2591 34.8458 74.2132 34.4163 74.128 34.0262C74.0947 33.7575 74.0206 33.4955 73.9083 33.2491C73.8106 32.8638 73.6801 32.4875 73.5181 32.1245C73.3484 32.5629 73.2039 33.0106 73.0853 33.4655C72.9542 33.8983 72.8689 34.3737 72.7378 34.8065C72.7378 34.9226 72.7235 35.0382 72.6952 35.1508C72.6525 35.3245 72.6525 35.495 72.6066 35.7114C72.5607 35.9278 72.5214 36.1868 72.4788 36.4458C72.4361 36.7049 72.3902 36.9212 72.3476 37.1835C72.305 37.4458 72.305 37.5704 72.2591 37.7442C72.2132 37.918 72.2165 38.0458 72.1738 38.0885C71.7837 38.177 71.3935 38.2196 70.9148 38.3049C70.5073 38.327 70.1013 38.3708 69.6984 38.436C69.3083 38.4786 68.9607 38.4786 68.6591 38.5212C68.3575 38.5639 68.0952 38.5639 67.8755 38.5639C67.8809 38.4534 67.8963 38.3437 67.9214 38.236L68.0493 37.459C68.0952 37.154 68.1378 36.9376 68.1804 36.7245C68.1992 36.5923 68.2288 36.4618 68.2689 36.3344C68.321 36.0024 68.3933 35.6739 68.4853 35.3508C68.6132 34.8753 68.7017 34.3671 68.8329 33.7934C68.964 33.2196 69.0919 32.6688 69.223 32.1081C69.3533 31.6707 69.44 31.2216 69.482 30.7671C69.5706 30.3803 69.6132 29.9475 69.7443 29.5147C69.8755 29.0819 69.9607 28.5639 70.0034 28.1311C70.0543 27.9159 70.084 27.6963 70.0919 27.4753C70.1416 27.2601 70.1701 27.0404 70.1771 26.8196C70.1811 26.6438 70.2098 26.4694 70.2624 26.3016C70.3425 25.9592 70.4006 25.612 70.4361 25.2622C70.5247 24.8753 70.5673 24.5704 70.6099 24.2786C70.6633 24.0963 70.6931 23.9079 70.6984 23.718C71.0034 23.6294 71.305 23.5868 71.7411 23.5016L72.9542 23.2426C73.3902 23.154 73.823 23.1114 74.2657 23.0262C74.7083 22.9409 75.1345 22.895 75.5771 22.8524C75.7029 23.2319 75.7907 23.6228 75.8394 24.0196C75.9247 24.5376 76.0558 25.1016 76.1443 25.7475C76.2329 26.3934 76.3607 26.9573 76.446 27.5212C76.5173 27.9649 76.6192 28.4031 76.7509 28.8327C76.8123 28.5328 76.8561 28.2296 76.882 27.9245C76.9673 27.495 77.0099 27.0196 77.1411 26.4983C77.2263 26.1114 77.2722 25.6786 77.3575 25.2458C77.4427 24.8131 77.4886 24.4262 77.5739 24.0786C77.6591 23.7311 77.705 23.3442 77.7935 23.095C77.8625 22.8824 77.9054 22.6622 77.9214 22.4393C78.4001 22.354 79.0066 22.2688 79.8329 22.1803C80.6647 22.0466 81.5052 21.9742 82.3476 21.9639C82.305 22.1376 82.2198 22.4852 82.0886 23.0458C82.0066 23.614 81.8906 24.1768 81.7411 24.7311C81.6099 25.3376 81.482 25.8983 81.3935 26.4163C81.305 26.9344 81.2198 27.3245 81.1771 27.4983C81.046 28.1016 80.9607 28.6655 80.787 29.2688C80.6132 29.8721 80.5247 30.436 80.3968 31.0852C80.3083 31.5606 80.2657 32.036 80.1804 32.554C80.0727 33.0648 79.9961 33.5816 79.9509 34.1016Z" fill="white"/>
<path d="M25.4858 29.8467C25.1295 27.755 25.7849 25.9342 25.9312 23.8705V23.7522L25.8294 23.802C25.4548 23.9751 25.0404 24.0493 24.6274 24.0171C24.2144 23.9848 23.8172 23.8474 23.4753 23.6184C22.9759 24.6082 22.2028 25.7038 21.697 26.7808C22.0565 27.9605 21.4171 29.4701 19.7883 29.4701H19.2602C18.9422 29.4657 18.6293 29.3908 18.3451 29.2509C18.0609 29.1111 17.8129 28.91 17.6196 28.6628C17.4264 28.4156 17.293 28.1287 17.2295 27.8237C17.1659 27.5188 17.174 27.2037 17.2529 26.9022C17.5392 25.626 18.4236 24.5086 19.0089 23.3445C19.8207 21.8395 20.5429 20.29 21.1721 18.7036C21.627 17.4586 22.5273 17.278 22.8709 15.9614C22.7118 12.7336 20.994 4.38565 14.4885 0C14.4885 0 17.5742 5.91393 11.4281 15.1708C8.98499 17.7698 2.83892 16.3162 3.42108 25.1778C2.54307 25.2836 1.15289 23.9981 1.05745 22.9398C1.05745 22.9398 -0.0559665 37.7932 15.4619 37.7932C20.8286 37.7932 24.8464 35.0945 27.3468 31.2754C26.4784 31.2692 25.6513 30.7992 25.4858 29.8467Z" fill="url(#paint0_linear_2825_4508)"/>
<path d="M21.996 15.9363C21.837 16.2476 20.4054 17.3837 20.1891 17.6732C18.7894 19.5594 19.7247 20.266 18.4808 22.23C18.2817 23.669 18.0046 25.0966 17.6505 26.5067L17.8637 26.4756C20.0905 26.1643 22.3173 25.9713 24.5283 25.5947C25.7174 25.2239 26.9341 24.9439 28.1675 24.7574C28.4679 24.7083 28.7754 24.7199 29.071 24.7917C29.3679 24.8603 29.6466 24.9897 29.8886 25.1714C31.3424 18.6132 29.4432 11.2923 23.6725 7.99609C23.9906 8.96722 24.2928 14.1061 21.996 15.9363Z" fill="#C4C4C4"/>
<path d="M21.996 15.9363C21.837 16.2476 20.4054 17.3837 20.1891 17.6732C18.7894 19.5594 19.7247 20.266 18.4808 22.23C18.2817 23.669 18.0046 25.0966 17.6505 26.5067L17.8637 26.4756C20.0905 26.1643 22.3173 25.9713 24.5283 25.5947C25.7174 25.2239 26.9341 24.9439 28.1675 24.7574C28.4679 24.7083 28.7754 24.7199 29.071 24.7917C29.3679 24.8603 29.6466 24.9897 29.8886 25.1714C31.3424 18.6132 29.4432 11.2923 23.6725 7.99609C23.9906 8.96722 24.2928 14.1061 21.996 15.9363Z" fill="url(#paint1_linear_2825_4508)"/>
<path d="M9.36034 11.6598C12.0325 9.54008 11.9403 6.26562 11.9403 6.26562C11.9403 6.5551 6.91082 8.86776 6.80584 11.557C6.70086 14.2463 8.02742 15.6345 8.02742 15.6345C8.02742 15.6345 6.69768 13.7794 9.36034 11.6598Z" fill="url(#paint2_linear_2825_4508)"/>
<path fill-rule="evenodd" clip-rule="evenodd" d="M24.789 20.9731C26.6309 21.2563 28.1515 20.8922 28.581 13.1387C33.9444 24.2289 29.7039 31.8796 22.0754 36.4178L22.4635 37.143C22.5463 37.2998 22.596 37.4713 22.6099 37.6473C22.6266 37.8238 22.606 38.0018 22.5494 38.1702C22.4951 38.3394 22.4064 38.4961 22.2886 38.6309C22.171 38.7649 22.0285 38.8758 21.8686 38.9577L21.6173 39.0853C21.455 39.1667 21.2776 39.2154 21.0956 39.2285C20.9152 39.2448 20.7333 39.2247 20.5612 39.1693C20.3873 39.1162 20.2261 39.0294 20.0872 38.9141C19.9559 38.7977 19.848 38.6584 19.7691 38.5032L19.1869 37.4076C18.9897 37.4512 18.7861 37.4948 18.5825 37.5321L18.6652 38.5188C18.6803 38.6953 18.6598 38.873 18.6047 39.0417C18.521 39.2968 18.3617 39.5218 18.1471 39.688C17.9324 39.8543 17.672 39.9544 17.3991 39.9755L17.1159 39.9973C16.9357 40.0125 16.7541 39.9929 16.5817 39.9395C16.4092 39.8861 16.2491 39.8 16.1107 39.686C15.9723 39.5724 15.8587 39.4327 15.7767 39.2752C15.6939 39.1181 15.6431 38.9469 15.6271 38.7709L15.5476 37.806C15.2295 37.806 14.9464 37.806 14.6569 37.7873L14.5742 38.7709C14.5416 39.1243 14.3678 39.4509 14.0906 39.6798C13.8119 39.9071 13.4534 40.0188 13.0917 39.9911L12.8086 39.9662C12.6181 39.9578 12.4317 39.9101 12.2614 39.8261C12.1 39.7451 11.9563 39.6341 11.8383 39.4993C11.7222 39.3634 11.6337 39.207 11.5775 39.0386C11.5227 38.8709 11.5021 38.6943 11.517 38.5188L11.6061 37.4636C11.3707 37.4201 11.1385 37.3702 10.9126 37.3204L10.4386 38.2169C10.2712 38.5345 9.9817 38.7741 9.63377 38.883C9.46051 38.9371 9.27805 38.9572 9.09682 38.9423C8.9156 38.9273 8.73916 38.8775 8.57761 38.7958L8.31993 38.6713C8.15923 38.5893 8.01656 38.4772 7.90002 38.3414C7.78225 38.2077 7.6935 38.0521 7.63916 37.8838C7.58388 37.7154 7.56328 37.5378 7.57857 37.3615C7.59386 37.1852 7.64473 37.0136 7.72823 36.8567L7.99545 36.3524C-0.00206906 32.471 1.02864 22.8593 1.02864 22.8593C1.13044 23.9145 3.86308 27.3166 4.74427 27.217C4.51841 23.8087 5.10057 22.7224 6.08037 22.5854C6.22989 22.4298 6.39849 22.2741 6.54483 22.1279C7.49919 21.2128 8.45354 20.3163 7.84276 18.6729C9.26688 20.2638 10.5334 21.9834 11.6252 23.8087C11.8243 23.7716 12.0178 23.7098 12.201 23.625C11.0908 19.1304 15.1086 13.4686 15.1086 13.4686C16.3143 17.0574 17.2655 19.7934 18.3725 21.275C18.7606 20.4035 19.6641 19.616 20.558 18.8347C21.7064 17.8356 22.8325 16.8551 22.8071 15.747C24.2164 17.3158 25.1739 19.0277 24.789 20.9731Z" fill="#C4C4C4"/>
<path fill-rule="evenodd" clip-rule="evenodd" d="M24.789 20.9731C26.6309 21.2563 28.1515 20.8922 28.581 13.1387C33.9444 24.2289 29.7039 31.8796 22.0754 36.4178L22.4635 37.143C22.5463 37.2998 22.596 37.4713 22.6099 37.6473C22.6266 37.8238 22.606 38.0018 22.5494 38.1702C22.4951 38.3394 22.4064 38.4961 22.2886 38.6309C22.171 38.7649 22.0285 38.8758 21.8686 38.9577L21.6173 39.0853C21.455 39.1667 21.2776 39.2154 21.0956 39.2285C20.9152 39.2448 20.7333 39.2247 20.5612 39.1693C20.3873 39.1162 20.2261 39.0294 20.0872 38.9141C19.9559 38.7977 19.848 38.6584 19.7691 38.5032L19.1869 37.4076C18.9897 37.4512 18.7861 37.4948 18.5825 37.5321L18.6652 38.5188C18.6803 38.6953 18.6598 38.873 18.6047 39.0417C18.521 39.2968 18.3617 39.5218 18.1471 39.688C17.9324 39.8543 17.672 39.9544 17.3991 39.9755L17.1159 39.9973C16.9357 40.0125 16.7541 39.9929 16.5817 39.9395C16.4092 39.8861 16.2491 39.8 16.1107 39.686C15.9723 39.5724 15.8587 39.4327 15.7767 39.2752C15.6939 39.1181 15.6431 38.9469 15.6271 38.7709L15.5476 37.806C15.2295 37.806 14.9464 37.806 14.6569 37.7873L14.5742 38.7709C14.5416 39.1243 14.3678 39.4509 14.0906 39.6798C13.8119 39.9071 13.4534 40.0188 13.0917 39.9911L12.8086 39.9662C12.6181 39.9578 12.4317 39.9101 12.2614 39.8261C12.1 39.7451 11.9563 39.6341 11.8383 39.4993C11.7222 39.3634 11.6337 39.207 11.5775 39.0386C11.5227 38.8709 11.5021 38.6943 11.517 38.5188L11.6061 37.4636C11.3707 37.4201 11.1385 37.3702 10.9126 37.3204L10.4386 38.2169C10.2712 38.5345 9.9817 38.7741 9.63377 38.883C9.46051 38.9371 9.27805 38.9572 9.09682 38.9423C8.9156 38.9273 8.73916 38.8775 8.57761 38.7958L8.31993 38.6713C8.15923 38.5893 8.01656 38.4772 7.90002 38.3414C7.78225 38.2077 7.6935 38.0521 7.63916 37.8838C7.58388 37.7154 7.56328 37.5378 7.57857 37.3615C7.59386 37.1852 7.64473 37.0136 7.72823 36.8567L7.99545 36.3524C-0.00206906 32.471 1.02864 22.8593 1.02864 22.8593C1.13044 23.9145 3.86308 27.3166 4.74427 27.217C4.51841 23.8087 5.10057 22.7224 6.08037 22.5854C6.22989 22.4298 6.39849 22.2741 6.54483 22.1279C7.49919 21.2128 8.45354 20.3163 7.84276 18.6729C9.26688 20.2638 10.5334 21.9834 11.6252 23.8087C11.8243 23.7716 12.0178 23.7098 12.201 23.625C11.0908 19.1304 15.1086 13.4686 15.1086 13.4686C16.3143 17.0574 17.2655 19.7934 18.3725 21.275C18.7606 20.4035 19.6641 19.616 20.558 18.8347C21.7064 17.8356 22.8325 16.8551 22.8071 15.747C24.2164 17.3158 25.1739 19.0277 24.789 20.9731Z" fill="url(#paint3_linear_2825_4508)"/>
<path d="M18.185 10.5178C19.273 8.50398 18.3282 7.0037 16.8775 5.72754C17.2275 7.5951 16.1332 9.57783 15.9518 11.4827C15.9073 11.9527 16.3018 11.1933 16.6199 10.5303C16.6529 10.4475 16.7057 10.3736 16.7739 10.3149C16.8421 10.2561 16.9236 10.2142 17.0117 10.1925C17.0999 10.1709 17.192 10.1702 17.2804 10.1905C17.3689 10.2108 17.4511 10.2516 17.5201 10.3093C17.8923 10.6735 17.9432 10.966 18.185 10.5178Z" fill="#C4C4C4"/>
<path d="M18.185 10.5178C19.273 8.50398 18.3282 7.0037 16.8775 5.72754C17.2275 7.5951 16.1332 9.57783 15.9518 11.4827C15.9073 11.9527 16.3018 11.1933 16.6199 10.5303C16.6529 10.4475 16.7057 10.3736 16.7739 10.3149C16.8421 10.2561 16.9236 10.2142 17.0117 10.1925C17.0999 10.1709 17.192 10.1702 17.2804 10.1905C17.3689 10.2108 17.4511 10.2516 17.5201 10.3093C17.8923 10.6735 17.9432 10.966 18.185 10.5178Z" fill="url(#paint4_linear_2825_4508)"/>
<g opacity="0.9">
<path opacity="0.9" d="M15.1853 30.6314L8.7625 27.8612C8.7147 27.8401 8.66179 27.8325 8.60981 27.8394C8.55886 27.8482 8.51147 27.8709 8.47301 27.9047C8.43671 27.9396 8.41133 27.9839 8.39985 28.0324C8.38401 28.081 8.38401 28.1332 8.39985 28.1818C9.67233 31.6274 11.9373 32.334 15.1726 31.1014C15.2222 31.0856 15.2656 31.0552 15.2967 31.0142C15.3268 30.9723 15.343 30.9223 15.343 30.8711C15.343 30.8198 15.3268 30.7698 15.2967 30.7279C15.2702 30.6856 15.2314 30.652 15.1853 30.6314Z" fill="white"/>
</g>
<path d="M8.71445 27.8946C8.69557 27.853 8.66156 27.8197 8.61902 27.8013L8.21182 27.627C9.44613 31.608 11.8416 32.4172 15.3313 31.0352C15.3665 31.0216 15.3964 30.9977 15.4172 30.9668C15.4377 30.9362 15.4488 30.9006 15.449 30.8641C15.4483 30.8286 15.4373 30.794 15.4172 30.7645C15.3964 30.7336 15.3665 30.7097 15.3313 30.696L14.5042 30.338C14.4622 30.3225 14.4158 30.3225 14.3738 30.338C11.8002 31.0851 9.90104 30.4252 8.71445 27.8946Z" fill="#E93F3A"/>
<g opacity="0.9">
<path opacity="0.9" d="M16.798 30.6315L23.2304 27.8613C23.2781 27.84 23.3311 27.8324 23.3831 27.8395C23.4333 27.8477 23.4798 27.8705 23.5167 27.9048C23.5547 27.9393 23.5813 27.9841 23.5932 28.0334C23.6051 28.0827 23.6017 28.1344 23.5835 28.1819C22.311 31.6275 20.046 32.3341 16.8107 31.1015C16.7611 31.0857 16.7178 31.0553 16.6867 31.0143C16.6541 30.9734 16.6362 30.923 16.6358 30.8711C16.6337 30.8194 16.6481 30.7682 16.6771 30.7249C16.7067 30.6824 16.7489 30.6498 16.798 30.6315Z" fill="white"/>
</g>
<path d="M23.2655 27.8946C23.2851 27.8535 23.3189 27.8204 23.3609 27.8013L23.7681 27.627C22.537 31.608 20.1384 32.4172 16.6486 31.0352C16.6135 31.0216 16.5835 30.9977 16.5627 30.9668C16.5422 30.9362 16.5312 30.9006 16.5309 30.8641C16.5316 30.8286 16.5426 30.794 16.5627 30.7645C16.5835 30.7336 16.6135 30.7097 16.6486 30.696L17.4789 30.338C17.5198 30.3224 17.5652 30.3224 17.6061 30.338C20.1797 31.0851 22.0789 30.4252 23.2655 27.8946Z" fill="#E93F3A"/>
</g>
<defs>
<linearGradient id="paint0_linear_2825_4508" x1="12.0612" y1="50.5953" x2="15.3606" y2="12.6836" gradientUnits="userSpaceOnUse">
<stop stop-color="#FCEF44"/>
<stop offset="0.04" stop-color="#FDE62A"/>
<stop offset="0.12" stop-color="#FDD519"/>
<stop offset="0.2" stop-color="#FCCB16"/>
<stop offset="0.28" stop-color="#FDC713"/>
<stop offset="0.67" stop-color="#F29140"/>
<stop offset="0.89" stop-color="#ED683C"/>
<stop offset="1" stop-color="#E93F3A"/>
</linearGradient>
<linearGradient id="paint1_linear_2825_4508" x1="24.9227" y1="34.4003" x2="23.1619" y2="12.3195" gradientUnits="userSpaceOnUse">
<stop stop-color="#FCEF44"/>
<stop offset="0.04" stop-color="#FDE62A"/>
<stop offset="0.12" stop-color="#FDD519"/>
<stop offset="0.2" stop-color="#FCCB16"/>
<stop offset="0.28" stop-color="#FDC713"/>
<stop offset="0.67" stop-color="#F29140"/>
<stop offset="0.89" stop-color="#ED683C"/>
<stop offset="1" stop-color="#E93F3A"/>
</linearGradient>
<linearGradient id="paint2_linear_2825_4508" x1="9.15993" y1="17.0477" x2="9.43098" y2="6.34313" gradientUnits="userSpaceOnUse">
<stop stop-color="#FCEF44"/>
<stop offset="0.04" stop-color="#FDE62A"/>
<stop offset="0.12" stop-color="#FDD519"/>
<stop offset="0.2" stop-color="#FCCB16"/>
<stop offset="0.28" stop-color="#FDC713"/>
<stop offset="0.67" stop-color="#F29140"/>
<stop offset="0.89" stop-color="#ED683C"/>
<stop offset="1" stop-color="#E93F3A"/>
</linearGradient>
<linearGradient id="paint3_linear_2825_4508" x1="15.9039" y1="16.0614" x2="16.2115" y2="41.8961" gradientUnits="userSpaceOnUse">
<stop stop-color="#FCEF44"/>
<stop offset="0.04" stop-color="#FDE62A"/>
<stop offset="0.12" stop-color="#FDD519"/>
<stop offset="0.2" stop-color="#FCCB16"/>
<stop offset="0.28" stop-color="#FDC713"/>
<stop offset="0.67" stop-color="#F29140"/>
<stop offset="0.89" stop-color="#ED683C"/>
<stop offset="1" stop-color="#E93F3A"/>
</linearGradient>
<linearGradient id="paint4_linear_2825_4508" x1="16.7376" y1="11.5232" x2="21.6346" y2="-8.67139" gradientUnits="userSpaceOnUse">
<stop stop-color="#FCEF44"/>
<stop offset="0.04" stop-color="#FDE62A"/>
<stop offset="0.12" stop-color="#FDD519"/>
<stop offset="0.2" stop-color="#FCCB16"/>
<stop offset="0.28" stop-color="#FDC713"/>
<stop offset="0.67" stop-color="#F29140"/>
<stop offset="0.89" stop-color="#ED683C"/>
<stop offset="1" stop-color="#E93F3A"/>
</linearGradient>
<clipPath id="clip0_2825_4508">
<rect width="104" height="40" fill="white"/>
</clipPath>
</defs>
</svg>
