<svg width="32" height="32" viewBox="0 0 32 32" fill="none" xmlns="http://www.w3.org/2000/svg">
<path d="M13.7146 5.74149C13.9515 5.34661 14.2867 5.01981 14.6874 4.79292C15.0881 4.56603 15.5408 4.44678 16.0013 4.44678C16.4618 4.44678 16.9144 4.56603 17.3152 4.79292C17.7159 5.01981 18.051 5.34661 18.2879 5.74149L28.9519 23.5148C29.1951 23.9196 29.3265 24.3817 29.3325 24.8539C29.3386 25.3261 29.2192 25.7914 28.9865 26.2023C28.7538 26.6132 28.4161 26.9549 28.0081 27.1925C27.6 27.4302 27.1362 27.5552 26.6639 27.5548H5.33594C4.86372 27.5552 4.39987 27.4302 3.99181 27.1925C3.58374 26.9549 3.2461 26.6132 3.01339 26.2023C2.78069 25.7914 2.66126 25.3261 2.66733 24.8539C2.6734 24.3817 2.80475 23.9196 3.04794 23.5148L13.7146 5.74149Z" fill="#FCC211"/>
</svg>
